<svg xmlns="http://www.w3.org/2000/svg" width="68" height="68" viewBox="0 0 68 68">
  <g id="gastroenterology" transform="translate(-2581 729)">
    <rect id="Rectangle_3016" data-name="Rectangle 3016" width="68" height="68" rx="3" transform="translate(2581 -729)" fill="#eceef3" opacity="0"/>
    <g id="Group_12210" data-name="Group 12210" transform="translate(932 -2230.236)">
      <g id="Group_11332" data-name="Group 11332" transform="translate(1660.998 1503.242)">
        <path id="Path_5883" data-name="Path 5883" d="M407.3,331.1a1.716,1.716,0,1,0,2.6-2.241,1.757,1.757,0,0,0-2.416-.184,1.726,1.726,0,0,0-.181,2.425Zm.926-1.556a.563.563,0,0,1,.372-.139.574.574,0,0,1,.373,1.008.562.562,0,0,1-.371.138.573.573,0,0,1-.374-1.008Z" transform="translate(-378.475 -290.406)" fill="#ed803a"/>
        <path id="Path_5884" data-name="Path 5884" d="M442.3,357.347a1.716,1.716,0,1,0,2.6-2.241,1.757,1.757,0,0,0-2.416-.184,1.726,1.726,0,0,0-.182,2.425Zm.926-1.556a.563.563,0,0,1,.372-.139.574.574,0,0,1,.373,1.008.562.562,0,0,1-.371.138.573.573,0,0,1-.374-1.008Z" transform="translate(-409.416 -313.628)" fill="#ed803a"/>
        <path id="Path_5885" data-name="Path 5885" d="M398.545,370.464a1.716,1.716,0,1,0,2.6-2.241,1.756,1.756,0,0,0-2.416-.184,1.726,1.726,0,0,0-.181,2.425Zm.926-1.556a.563.563,0,0,1,.372-.139.574.574,0,0,1,.373,1.008.561.561,0,0,1-.371.138.573.573,0,0,1-.374-1.008Z" transform="translate(-370.739 -325.232)" fill="#ed803a"/>
        <path id="Path_5886" data-name="Path 5886" d="M453.459,313.777a1.724,1.724,0,0,0,.183-2.425,1.757,1.757,0,0,0-2.416-.184,1.717,1.717,0,1,0,2.233,2.608Zm-1.489-1.739a.563.563,0,0,1,.372-.139.574.574,0,0,1,.373,1.008.562.562,0,0,1-.371.138.573.573,0,0,1-.374-1.008Z" transform="translate(-417.152 -274.921)" fill="#ed803a"/>
        <path id="Path_5887" data-name="Path 5887" d="M417.913,266.88a2.293,2.293,0,0,0,0,4.585h0a2.293,2.293,0,1,0,0-4.585Zm.745,3.162a1.147,1.147,0,1,1,.327-1.267A1.139,1.139,0,0,1,418.658,270.042Z" transform="translate(-386.304 -236.165)" fill="#ed803a"/>
        <path id="Path_5888" data-name="Path 5888" d="M169.763,52.478c-.022-.263-.043-.514-.06-.75l-.037-.519a22.369,22.369,0,0,1,.225-7.01c.5-2.011,1.388-3.27,2.638-3.744a4.748,4.748,0,0,1,3.45.314,2.833,2.833,0,0,0,3.557.222c1.607-1.01,3.377.33,3.451.387a.534.534,0,0,0,.078.051c1.342.733,3.61.289,4.732-.312a10.161,10.161,0,0,0,5.3-7.384,7.811,7.811,0,0,0-2.685-7.095c-3.686-3.243-4-5.949-4-5.949V12.628a.541.541,0,0,0-.571-.5H177.8V7.569h7.461a.541.541,0,0,0,.571-.505V.5a.575.575,0,0,0-1.142,0V6.559h-7.461a.541.541,0,0,0-.571.505v5.564a.541.541,0,0,0,.571.505h8.034v7.6c.011.124.314,3.087,4.338,6.626a6.885,6.885,0,0,1,2.356,6.258,9.131,9.131,0,0,1-4.758,6.64,4.759,4.759,0,0,1-3.5.336,4.407,4.407,0,0,0-4.851-.4,1.6,1.6,0,0,1-2.09-.156.56.56,0,0,0-.124-.091,6.027,6.027,0,0,0-4.546-.415c-1.613.607-2.728,2.108-3.314,4.459a23.043,23.043,0,0,0-.249,7.293l.037.517c.017.239.038.495.061.762.222,2.629.526,6.229-2.354,7.16a8.912,8.912,0,0,1-3.723.216.569.569,0,0,0-.661.41.514.514,0,0,0,.463.585,10.41,10.41,0,0,0,1.575.116,9.252,9.252,0,0,0,2.737-.378c3.691-1.193,3.336-5.4,3.1-8.184Z" transform="translate(-161.878 0.001)"/>
        <path id="Path_5889" data-name="Path 5889" d="M251.928,34.745c-.107-3.731-1.263-6.657-3.436-8.7A12.4,12.4,0,0,0,240.109,23a5,5,0,0,1-3.92-.908,4.067,4.067,0,0,1-1.295-2.561V13.209h7.064a.5.5,0,0,0,.5-.508V7.107a.5.5,0,0,0-.5-.508H235.4V.511a.5.5,0,0,0-1,0v6.6a.505.505,0,0,0,.5.508h6.559V12.2H234.4a.5.5,0,0,0-.5.508v6.862a5.04,5.04,0,0,0,1.635,3.3,5.906,5.906,0,0,0,4.658,1.158,11.535,11.535,0,0,1,7.624,2.773c1.968,1.848,3.016,4.534,3.118,8.018.052.527,1.1,12.943-13.56,15.943-.106.023-10.7,2.2-16.652-5.318a.553.553,0,0,0-.5-.208c-.535.063-1.019,1.088-1.024,1.1a10.31,10.31,0,0,0-.472,4.912v.066c.046.694.137,1.38.225,2.042a11.624,11.624,0,0,1-.015,4.731,8.317,8.317,0,0,1-3.818,4.98.511.511,0,0,0-.175.7.5.5,0,0,0,.432.249.492.492,0,0,0,.256-.071,9.312,9.312,0,0,0,4.272-5.579,12.584,12.584,0,0,0,.043-5.14c-.086-.646-.174-1.314-.218-1.976v-.066a9.6,9.6,0,0,1,.368-4.389c.04-.073.108-.187.181-.3,6.393,7.523,17.2,5.287,17.3,5.265,15.565-3.184,14.368-16.9,14.356-17Z" transform="translate(-207.953 -0.002)"/>
        <path id="Path_5891" data-name="Path 5891" d="M495.512,337.449a.571.571,0,1,1-.571-.571.571.571,0,0,1,.571.571" transform="translate(-456.073 -297.846)" fill="#ed803a"/>
        <path id="Path_5892" data-name="Path 5892" d="M488.137,259.687a.572.572,0,0,0,.549-.418c1.446-5.143-1.9-9.5-2.048-9.681a.573.573,0,1,0-.9.709c.032.04,3.136,4.072,1.846,8.66a.574.574,0,0,0,.395.708.589.589,0,0,0,.155.021Z" transform="translate(-448.465 -221.038)" fill="#ed803a"/>
        <path id="Path_5893" data-name="Path 5893" d="M289.393,382.83a3.684,3.684,0,0,1-3.941-1.9.571.571,0,1,0-1.011.533,4.909,4.909,0,0,0,4.171,2.6,4.783,4.783,0,0,0,1.025-.114.573.573,0,0,0-.243-1.12Z" transform="translate(-270.267 -336.719)" fill="#ed803a"/>
      </g>
    </g>
  </g>
</svg>
