<svg xmlns="http://www.w3.org/2000/svg" width="68" height="68" viewBox="0 0 68 68">
  <g id="urology" transform="translate(-2236 625)">
    <rect id="Rectangle_3008" data-name="Rectangle 3008" width="68" height="68" rx="3" transform="translate(2236 -625)" fill="#eceef3" opacity="0"/>
    <g id="Group_12218" data-name="Group 12218" transform="translate(1285 -2461)">
      <g id="Group_11337" data-name="Group 11337" transform="translate(-12416 -703)">
        <path id="Path_5908" data-name="Path 5908" d="M127.915,34.6a2.625,2.625,0,0,1,2.793-2.7h2.778c.888,0,1.336.521,2.05,1.441a4.323,4.323,0,0,0,3.538,2.16.9.9,0,1,0,0-1.8c-.887,0-1.335-.52-2.048-1.44-.092-.118-.186-.24-.285-.363h5.132a.9.9,0,0,0,0-1.8h-1.4c.1-.121.192-.243.283-.36.714-.92,1.161-1.44,2.048-1.44a.9.9,0,1,0,0-1.8,4.323,4.323,0,0,0-3.538,2.16c-.712.918-1.16,1.437-2.044,1.44H130.71a4.428,4.428,0,0,0-4.655,4.5c0,1.875,1.531,4.259,3.3,7.021,1.944,3.03,4.147,6.462,4.147,9.179a4,4,0,0,1-1.906,3.71c-.346-3.583-3.953-6.412-8.345-6.412s-8,2.828-8.345,6.41a4,4,0,0,1-1.9-3.708c0-2.717,2.2-6.15,4.147-9.179,1.771-2.762,3.3-5.146,3.3-7.021a4.428,4.428,0,0,0-4.655-4.5H109.28c-.885,0-1.331-.522-2.044-1.44A4.323,4.323,0,0,0,103.7,26.5a.9.9,0,1,0,0,1.8c.888,0,1.335.52,2.048,1.44.091.117.185.239.283.36h-1.4a.9.9,0,1,0,0,1.8h5.129c-.1.123-.194.245-.285.363-.714.92-1.161,1.44-2.048,1.44a.9.9,0,0,0,0,1.8,4.323,4.323,0,0,0,3.538-2.16c.714-.92,1.161-1.441,2.049-1.441H115.8a2.625,2.625,0,0,1,2.8,2.7c0,1.362-1.536,3.756-3.022,6.072-2.075,3.233-4.426,6.9-4.426,10.128a5.743,5.743,0,0,0,3.886,5.776c.571,2.953,2.63,6.93,5.425,8.656V70.6a.932.932,0,0,0,1.862,0V66a4.47,4.47,0,0,0,1.862,0v4.6a.932.932,0,0,0,1.862,0V65.233c2.8-1.725,4.854-5.7,5.425-8.655a5.748,5.748,0,0,0,3.895-5.777c0-3.229-2.351-6.9-4.426-10.128-1.486-2.316-3.022-4.711-3.022-6.072Zm-4.664,29.7c-3.434,0-6.517-6.266-6.517-9.225,0-2.854,2.924-5.175,6.517-5.175s6.517,2.321,6.517,5.175C129.768,58.033,126.684,64.3,123.251,64.3ZM106.025,44.5c-5.391,0-9.776-6.056-9.776-13.5s4.385-13.5,9.776-13.5c4.669,0,8.6,4.388,9.561,10.669a.9.9,0,0,1-.785,1.021.927.927,0,0,1-1.057-.759c-.811-5.291-4.056-9.132-7.72-9.132-4.364,0-7.914,5.249-7.914,11.7s3.55,11.7,7.914,11.7c3.664,0,6.909-3.84,7.72-9.132a.932.932,0,0,1,1.057-.759.9.9,0,0,1,.785,1.021c-.961,6.281-4.891,10.669-9.561,10.669ZM150.249,31c0,7.444-4.385,13.5-9.776,13.5-4.669,0-8.6-4.388-9.562-10.669a.9.9,0,0,1,.785-1.021.924.924,0,0,1,1.058.759c.809,5.291,4.056,9.132,7.72,9.132,4.364,0,7.914-5.249,7.914-11.7s-3.55-11.7-7.914-11.7c-3.665,0-6.91,3.84-7.72,9.132a.927.927,0,0,1-1.058.759.9.9,0,0,1-.785-1.021c.961-6.281,4.893-10.669,9.562-10.669,5.391,0,9.776,6.056,9.776,13.5Z" transform="translate(13277.751 2528.5)"/>
        <ellipse id="Ellipse_161" data-name="Ellipse 161" cx="1.997" cy="2.895" rx="1.997" ry="2.895" transform="translate(13399.337 2582.881)" fill="#ee8846"/>
        <path id="Path_6007" data-name="Path 6007" d="M1.566-.018c.86-.013,1.54,1.082,1.52,2.446S2.351,4.907,1.491,4.92-.049,3.837-.028,2.474.706,0,1.566-.018Z" transform="matrix(0.857, 0.515, -0.515, 0.857, 13421.409, 2561.73)" fill="#ee8846"/>
        <path id="Path_6008" data-name="Path 6008" d="M1.566-.018c.86-.013,1.54,1.082,1.52,2.446S2.351,4.907,1.491,4.92-.049,3.837-.028,2.474.706,0,1.566-.018Z" transform="matrix(0.857, 0.515, -0.515, 0.857, 13416.109, 2550.106)" fill="#ee8846"/>
        <path id="Path_6009" data-name="Path 6009" d="M1.538.02c.855.014,1.567,1.137,1.59,2.509S2.477,5,1.622,4.985.055,3.848.032,2.476.683,0,1.538.02Z" transform="matrix(-0.755, 0.656, -0.656, -0.755, 13384.708, 2567.012)" fill="#ee8846"/>
        <path id="Path_6010" data-name="Path 6010" d="M1.538.02c.855.014,1.567,1.137,1.59,2.509S2.477,5,1.622,4.985.055,3.848.032,2.476.683,0,1.538.02Z" transform="matrix(-0.755, 0.656, -0.656, -0.755, 13388.327, 2553.229)" fill="#ee8846"/>
      </g>
    </g>
  </g>
</svg>
