<svg xmlns="http://www.w3.org/2000/svg" width="68" height="68" viewBox="0 0 68 68">
  <g id="cardiology_icon" transform="translate(-2231 729)">
    <rect id="Rectangle_3008" data-name="Rectangle 3008" width="68" height="68" rx="3" transform="translate(2231 -729)" fill="#eceef3" opacity="0"/>
    <g id="Group_12207" data-name="Group 12207" transform="translate(1280.215 -2231.401)">
      <g id="Group_11329" data-name="Group 11329" transform="translate(-12604.02 -990.27)">
        <path id="Path_5866" data-name="Path 5866" d="M135.752,121.046h43.729a9.127,9.127,0,0,0,9.139-9.1V69.472a9.128,9.128,0,0,0-9.139-9.1H135.753a9.127,9.127,0,0,0-9.139,9.1v42.479a9.128,9.128,0,0,0,9.139,9.1ZM128.341,69.47a7.4,7.4,0,0,1,7.412-7.376h43.729a7.4,7.4,0,0,1,7.412,7.376v42.479a7.4,7.4,0,0,1-7.412,7.376h-43.73a7.4,7.4,0,0,1-7.412-7.376Z" transform="translate(13431.19 2436.299)"/>
        <path id="Path_5867" data-name="Path 5867" d="M173.234,147.271H215.7a.778.778,0,0,0,.771-.785V114.07a.778.778,0,0,0-.771-.785H173.235a.778.778,0,0,0-.771.785v32.416a.778.778,0,0,0,.771.785ZM174,114.855h40.922V145.7H174.005Z" transform="translate(13394.342 2392.391)"/>
        <path id="Path_5868" data-name="Path 5868" d="M176.283,401.9a3.819,3.819,0,1,0-3.82-3.819,3.819,3.819,0,0,0,3.82,3.819Zm0-6.069a2.249,2.249,0,1,1-2.25,2.249,2.249,2.249,0,0,1,2.25-2.249Z" transform="translate(13394.342 2146.442)" fill="#ec8046"/>
        <path id="Path_5869" data-name="Path 5869" d="M260.113,403.36h-3.774a.785.785,0,0,0-.785.785v3.775a.785.785,0,0,0,.785.785h3.774a.785.785,0,0,0,.785-.785v-3.775A.785.785,0,0,0,260.113,403.36Zm-.785,3.775h-2.2v-2.2h2.2Z" transform="translate(13321.481 2138.494)"/>
        <path id="Path_5870" data-name="Path 5870" d="M328.907,418.32H318.99a.785.785,0,0,0,0,1.57h9.917a.785.785,0,1,0,0-1.57Z" transform="translate(13266.56 2125.421)"/>
        <path id="Path_5871" data-name="Path 5871" d="M434.269,418.32h-1.48a.785.785,0,1,0,0,1.57h1.48a.785.785,0,1,0,0-1.57Z" transform="translate(13166.975 2125.421)" fill="#ec8046"/>
        <path id="Path_5872" data-name="Path 5872" d="M244.649,242.255H231.91a.764.764,0,0,0-.665.394l-1.582,2.822-2.657-9.6a.77.77,0,0,0-.707-.57.76.76,0,0,0-.75.509l-2.417,6.6H211.946a.785.785,0,0,0,0,1.57h11.718a.769.769,0,0,0,.719-.51l1.783-4.867,2.518,9.1a.772.772,0,0,0,.645.565.755.755,0,0,0,.093.006.765.765,0,0,0,.665-.394l2.267-4.046h12.295a.785.785,0,1,0,0-1.57Z" transform="translate(13360.512 2285.554)" fill="#ec8046"/>
        <path id="Path_5873" data-name="Path 5873" d="M391.427,150.487a4.31,4.31,0,0,0-2.824,1.039,4.345,4.345,0,0,0-5.9,6.373l2.778,2.777a4.292,4.292,0,0,0,3.049,1.266h.12a4.3,4.3,0,0,0,3.069-1.266L394.5,157.9a4.341,4.341,0,0,0-3.071-7.412Zm1.962,6.3-2.777,2.777a2.762,2.762,0,0,1-1.98.806h-.078a2.746,2.746,0,0,1-1.959-.806l-2.778-2.777a2.775,2.775,0,1,1,3.924-3.924l.308.308a.785.785,0,0,0,1.109,0l.309-.308a2.851,2.851,0,0,1,3.923,0,2.785,2.785,0,0,1,0,3.924Z" transform="translate(13211.126 2359.776)" fill="#ec8046"/>
      </g>
    </g>
  </g>
</svg>
