<svg xmlns="http://www.w3.org/2000/svg" xmlns:xlink="http://www.w3.org/1999/xlink" width="68" height="68" viewBox="0 0 68 68">
  <defs>
    <clipPath id="clip-path">
      <rect id="Rectangle_68" data-name="Rectangle 68" width="51.6" height="42.168" transform="translate(0 0)" fill="none"/>
    </clipPath>
  </defs>
  <g id="endocrinology" transform="translate(-1202 -362)">
    <rect id="Rectangle_67" data-name="Rectangle 67" width="68" height="68" rx="3" transform="translate(1202 362)" fill="#fff" opacity="0.31"/>
    <g id="Group_57" data-name="Group 57" transform="translate(1209.867 374.709)">
      <g id="Group_56" data-name="Group 56" transform="translate(0 -0.001)" clip-path="url(#clip-path)">
        <path id="Path_129" data-name="Path 129" d="M2274.138,253.341a6.549,6.549,0,0,1-5.125-10.623.812.812,0,1,1,1.271,1.009,4.928,4.928,0,1,0,8.787,2.9,4.838,4.838,0,0,0-.115-.9.812.812,0,0,1,.626-.967,5.429,5.429,0,0,0,3.131-8.7.812.812,0,0,1,.13-1.14,5.863,5.863,0,0,0-1.049-9.855.812.812,0,0,1-.387-1.045,5.817,5.817,0,0,0,.469-2.477,5.872,5.872,0,1,0-11.739.372,5.945,5.945,0,0,0,.158,1.184.811.811,0,1,1-1.578.378,7.5,7.5,0,1,1,14.78-1.986,7.382,7.382,0,0,1-.342,2.476,7.485,7.485,0,0,1,1.277,11.713,7.052,7.052,0,0,1-3.767,10.467q.022.214.029.422a6.552,6.552,0,0,1-6.342,6.757q-.107,0-.214,0" transform="translate(-2235.089 -211.173)"/>
        <path id="Path_130" data-name="Path 130" d="M2083.383,1688.664a.811.811,0,0,1-.583-.247,5.944,5.944,0,0,1-1.122-6.623.812.812,0,0,1,1.473.682,4.319,4.319,0,0,0,.816,4.812.812.812,0,0,1-.583,1.376" transform="translate(-2051.3 -1657.226)"/>
        <path id="Path_131" data-name="Path 131" d="M2200.793,1388.082a.812.812,0,0,1-.729-.454,7.05,7.05,0,0,1-.689-2.4.812.812,0,1,1,1.615-.164,5.431,5.431,0,0,0,.531,1.851.811.811,0,0,1-.728,1.169" transform="translate(-2167.847 -1364.491)" fill="#ed8851"/>
        <path id="Path_132" data-name="Path 132" d="M2198.014,1088.38a.811.811,0,0,1-.806-.731q-.024-.237-.032-.48a6.98,6.98,0,0,1,1.373-4.409.811.811,0,1,1,1.305.964,5.369,5.369,0,0,0-1.056,3.393c0,.124.012.249.024.371a.811.811,0,0,1-.727.888c-.027,0-.054,0-.082,0" transform="translate(-2165.679 -1066.916)" fill="#ed8851"/>
        <path id="Path_133" data-name="Path 133" d="M2425.841,961.568a.812.812,0,0,1-.48-.157,7.544,7.544,0,0,1-1.586-1.577.811.811,0,1,1,1.3-.969,5.921,5.921,0,0,0,1.245,1.237.812.812,0,0,1-.481,1.466" transform="translate(-2388.876 -944.798)"/>
        <path id="Path_134" data-name="Path 134" d="M2347.54,797.738a.809.809,0,0,1-.652-.327,7.42,7.42,0,0,1-1.254-2.65.811.811,0,0,1,1.575-.392,5.815,5.815,0,0,0,.981,2.073.811.811,0,0,1-.65,1.3" transform="translate(-2311.99 -782.376)"/>
        <path id="Path_135" data-name="Path 135" d="M2343.539,227.675a.812.812,0,0,1-.522-1.433,5.87,5.87,0,1,0-9.467-3.076.812.812,0,0,1-1.575.393,7.5,7.5,0,1,1,12.084,3.927.807.807,0,0,1-.521.19" transform="translate(-2298.33 -211.173)"/>
        <path id="Path_136" data-name="Path 136" d="M2888.539,1502.76a7.067,7.067,0,0,1-1.328-.125.811.811,0,1,1,.3-1.594,5.445,5.445,0,0,0,2.129-10.679.812.812,0,0,1,.327-1.59,7.067,7.067,0,0,1-1.2,13.985c-.075,0-.152,0-.227,0" transform="translate(-2845.177 -1467.416)"/>
        <path id="Path_137" data-name="Path 137" d="M2356.394,1910.124a5.955,5.955,0,0,1-1.415-.17.811.811,0,1,1,.385-1.576,4.425,4.425,0,0,0,1.17.121,4.316,4.316,0,0,0,4.1-3.444.811.811,0,0,1,1.589.33,5.932,5.932,0,0,1-5.64,4.736c-.064,0-.128,0-.191,0" transform="translate(-2320.614 -1877.11)"/>
        <path id="Path_138" data-name="Path 138" d="M2083.387,1658.208a.81.81,0,0,1-.584-.248,5.954,5.954,0,0,1-.856-7.137.812.812,0,0,1,1.4.82,4.332,4.332,0,0,0,.623,5.189.811.811,0,0,1-.584,1.375" transform="translate(-2051.305 -1626.766)" fill="#ed8851"/>
        <path id="Path_139" data-name="Path 139" d="M2242.753,1474.225a.811.811,0,0,1-.521-1.434,4.126,4.126,0,0,1,3.258-1.044.811.811,0,1,1-.128,1.618,2.537,2.537,0,0,0-2.088.67.809.809,0,0,1-.521.189" transform="translate(-2209.807 -1450.634)" fill="#ed8851"/>
        <path id="Path_140" data-name="Path 140" d="M1848.861,13.03c-3.069,0-6.848-3.126-7.294-3.5a.81.81,0,0,1-.286-.619V.81a.811.811,0,1,1,1.623,0V8.523c1.341,1.07,4.39,3.131,6.3,2.861a.811.811,0,1,1,.228,1.606,4.109,4.109,0,0,1-.576.039" transform="translate(-1814.889 0.001)"/>
        <path id="Path_141" data-name="Path 141" d="M1845.652,946.043a10.688,10.688,0,0,1-3.89-.893.811.811,0,0,1-.481-.741v-5.57a.812.812,0,0,1,.55-.768c1.622-.552,5.225-.831,7.247,2.068a.811.811,0,0,1-1.331.928,4.591,4.591,0,0,0-4.843-1.6v4.392c1.031.374,2.877.849,3.979.335a.811.811,0,1,1,.688,1.47,4.517,4.517,0,0,1-1.918.38" transform="translate(-1814.889 -924.276)" fill="#ed8851"/>
        <path id="Path_142" data-name="Path 142" d="M1844.592,1634.75a5.784,5.784,0,0,1-2.943-.822.811.811,0,0,1-.367-.679v-5.012a.812.812,0,0,1,.149-.469,4.677,4.677,0,0,1,5.131-1.626.812.812,0,0,1-.455,1.559,3.07,3.07,0,0,0-3.2.83v4.231a3.872,3.872,0,0,0,3.65-.2.812.812,0,0,1,.846,1.386,5.324,5.324,0,0,1-2.808.808" transform="translate(-1814.889 -1602.619)" fill="#ed8851"/>
        <path id="Path_143" data-name="Path 143" d="M1842.092,2329.1a.811.811,0,0,1-.811-.811v-6.824a.81.81,0,0,1,.571-.775c.183-.058,4.524-1.377,6.9.508a.811.811,0,1,1-1.008,1.272c-1.206-.956-3.543-.681-4.842-.381v6.2a.811.811,0,0,1-.812.811" transform="translate(-1814.889 -2286.927)"/>
        <path id="Path_144" data-name="Path 144" d="M12.549,253.39c-.07,0-.14,0-.211,0A6.552,6.552,0,0,1,6,246.629q.007-.208.029-.422A7.052,7.052,0,0,1,2.257,235.74a7.485,7.485,0,0,1,1.277-11.713,7.4,7.4,0,0,1-.342-2.476,7.5,7.5,0,1,1,14.78,1.986.811.811,0,1,1-1.578-.378A5.872,5.872,0,1,0,4.814,221.6a5.822,5.822,0,0,0,.468,2.477.811.811,0,0,1-.387,1.045,5.863,5.863,0,0,0-1.049,9.856.811.811,0,0,1,.13,1.139,5.43,5.43,0,0,0,3.132,8.7.813.813,0,0,1,.625.967,4.949,4.949,0,0,0-.114.894,4.929,4.929,0,0,0,4.77,5.083,4.958,4.958,0,0,0,3.53-1.333,4.924,4.924,0,0,0,.487-6.655.812.812,0,1,1,1.271-1.009,6.549,6.549,0,0,1-5.128,10.623" transform="translate(0 -211.221)"/>
        <path id="Path_145" data-name="Path 145" d="M1305.856,1688.613a.812.812,0,0,1-.583-1.376,4.311,4.311,0,0,0,1.211-2.865,4.262,4.262,0,0,0-.4-1.946.811.811,0,1,1,1.472-.683,5.868,5.868,0,0,1,.545,2.682,5.929,5.929,0,0,1-1.667,3.941.81.81,0,0,1-.583.247" transform="translate(-1286.339 -1657.174)"/>
        <path id="Path_146" data-name="Path 146" d="M1245.622,1388.089a.812.812,0,0,1-.728-1.169,5.422,5.422,0,0,0,.531-1.85.811.811,0,1,1,1.615.162,7.028,7.028,0,0,1-.689,2.4.811.811,0,0,1-.729.454" transform="translate(-1226.969 -1364.498)" fill="#ed8851"/>
        <path id="Path_147" data-name="Path 147" d="M1206.657,1088.4a.7.7,0,0,1-.083,0,.811.811,0,0,1-.725-.889c.012-.121.021-.244.024-.368a5.37,5.37,0,0,0-1.056-3.394.811.811,0,1,1,1.305-.964,6.974,6.974,0,0,1,1.373,4.408c0,.162-.016.324-.032.483a.812.812,0,0,1-.806.729" transform="translate(-1187.392 -1066.934)" fill="#ed8851"/>
        <path id="Path_148" data-name="Path 148" d="M965.159,961.55a.812.812,0,0,1-.481-1.466,5.892,5.892,0,0,0,1.245-1.237.811.811,0,1,1,1.3.969,7.526,7.526,0,0,1-1.587,1.577.809.809,0,0,1-.479.157" transform="translate(-950.524 -944.781)"/>
        <path id="Path_149" data-name="Path 149" d="M1063.944,797.768a.812.812,0,0,1-.651-1.3,5.809,5.809,0,0,0,.982-2.074.812.812,0,1,1,1.575.393,7.428,7.428,0,0,1-1.255,2.649.81.81,0,0,1-.652.327" transform="translate(-1047.895 -782.405)"/>
        <path id="Path_150" data-name="Path 150" d="M225.617,227.724a.809.809,0,0,1-.521-.19,7.5,7.5,0,1,1,12.3-5.508,7.566,7.566,0,0,1-.219,1.58.811.811,0,1,1-1.575-.392,5.873,5.873,0,1,0-11.567-1.613,5.842,5.842,0,0,0,2.1,4.688.812.812,0,0,1-.522,1.433" transform="translate(-219.225 -211.221)"/>
        <path id="Path_151" data-name="Path 151" d="M88.561,1502.748q-.114,0-.228,0a7.067,7.067,0,0,1-1.2-13.985.812.812,0,0,1,.327,1.59,5.445,5.445,0,0,0,2.129,10.68.811.811,0,1,1,.3,1.594,7.072,7.072,0,0,1-1.328.125" transform="translate(-80.323 -1467.404)"/>
        <path id="Path_152" data-name="Path 152" d="M701.525,1910.175c-.064,0-.128,0-.192,0a5.933,5.933,0,0,1-5.64-4.736.812.812,0,0,1,1.589-.33,4.316,4.316,0,0,0,4.1,3.444,4.556,4.556,0,0,0,1.17-.121.811.811,0,1,1,.385,1.576,5.966,5.966,0,0,1-1.415.17" transform="translate(-685.705 -1877.161)"/>
        <path id="Path_153" data-name="Path 153" d="M1305.919,1658.19a.811.811,0,0,1-.584-1.375,4.332,4.332,0,0,0,.623-5.189.811.811,0,1,1,1.4-.82,5.955,5.955,0,0,1-.856,7.137.809.809,0,0,1-.584.248" transform="translate(-1286.401 -1626.748)" fill="#ed8851"/>
        <path id="Path_154" data-name="Path 154" d="M1061.8,1474.162a.809.809,0,0,1-.521-.189,2.536,2.536,0,0,0-2.088-.67.811.811,0,1,1-.128-1.618,4.11,4.11,0,0,1,3.258,1.044.811.811,0,0,1-.521,1.433" transform="translate(-1043.148 -1450.571)" fill="#ed8851"/>
        <path id="Path_155" data-name="Path 155" d="M1142.311,13.03a4.011,4.011,0,0,1-.575-.039.811.811,0,1,1,.228-1.606c1.908.271,4.963-1.792,6.3-2.861V.81a.812.812,0,0,1,1.623,0v8.1a.812.812,0,0,1-.287.619c-.445.378-4.225,3.5-7.294,3.5" transform="translate(-1124.684 0.001)"/>
        <path id="Path_156" data-name="Path 156" d="M1208.156,946.083a4.517,4.517,0,0,1-1.918-.38.811.811,0,1,1,.688-1.47c1.1.517,2.949.041,3.978-.333v-4.393a4.6,4.6,0,0,0-4.842,1.6.811.811,0,1,1-1.331-.928c2.021-2.9,5.623-2.619,7.247-2.068a.812.812,0,0,1,.55.768v5.57a.811.811,0,0,1-.481.741,10.69,10.69,0,0,1-3.89.893" transform="translate(-1187.319 -924.315)" fill="#ed8851"/>
        <path id="Path_157" data-name="Path 157" d="M1307.9,1634.8a5.322,5.322,0,0,1-2.808-.808.812.812,0,0,1,.846-1.386,3.883,3.883,0,0,0,3.65.2v-4.23a3.072,3.072,0,0,0-3.2-.83.812.812,0,0,1-.455-1.558,4.677,4.677,0,0,1,5.131,1.626.809.809,0,0,1,.149.469v5.012a.811.811,0,0,1-.367.679,5.785,5.785,0,0,1-2.943.822" transform="translate(-1285.998 -1602.664)" fill="#ed8851"/>
        <path id="Path_158" data-name="Path 158" d="M1222.924,2329.178a.811.811,0,0,1-.812-.811v-6.2c-1.3-.3-3.635-.574-4.841.381a.811.811,0,1,1-1.008-1.271c2.379-1.883,6.718-.565,6.9-.509a.811.811,0,0,1,.571.774v6.824a.811.811,0,0,1-.811.811" transform="translate(-1198.527 -2287.01)"/>
      </g>
    </g>
  </g>
</svg>
