<svg xmlns="http://www.w3.org/2000/svg" width="68" height="68" viewBox="0 0 68 68">
  <g id="ent" transform="translate(-2898 729)">
    <rect id="Rectangle_3019" data-name="Rectangle 3019" width="68" height="68" rx="3" transform="translate(2898 -729)" fill="#eceef3" opacity="0"/>
    <g id="Group_12214" data-name="Group 12214" transform="translate(1481 -2398)">
      <g id="Group_12213" data-name="Group 12213">
        <g id="Group_11335" data-name="Group 11335" transform="translate(1424 1676)">
          <path id="Path_5903" data-name="Path 5903" d="M88.267,54.891h3.9l.6,2.373c.168.681.831.715,1.408.679-.448.31-1.1.7-.9,1.355l.768,3.051h0a.9.9,0,0,0,.651.652c.7.174,1.463.333,2.254.5,4.3.887,7.588,1.776,7.588,4.409h0a.9.9,0,0,0,.839.9,54.407,54.407,0,0,0,5.932-.072c.372.84-.022,2.678,1.258,2.774a.891.891,0,0,0,.673-.31.908.908,0,0,0,.212-.716c-1.189-8.522-6.061-12.209-9.8-13.8,10.489-.583,14.822,9.624,15.522,14.064h0a.893.893,0,0,0,1.762-.284A21.311,21.311,0,0,0,119.992,67c.851-.438,2.543-.822,1.945-2.055-.719-1.044-1.727.127-2.615.376-3.3-7.917-11.064-12.224-20.441-9.8a.9.9,0,0,0,.155,1.776,13.675,13.675,0,0,1,7.324,3.047,13.863,13.863,0,0,1,4.438,6.62c-1.949.118-3.63.1-4.555.075-.736-4.145-6.7-4.758-10.607-5.66l-.485-1.929,2.309-1.676h0a.9.9,0,0,0-.522-1.631H94.323l-.6-2.373h0a.9.9,0,0,0-.865-.679H88.266a1.17,1.17,0,0,1-1-.565,1.073,1.073,0,0,1-.052-1.058,24.111,24.111,0,0,0,2.475-12.762c.2-8.681,9.6-20.923,21.857-19.256a19.539,19.539,0,0,1,16.706,23.1A.894.894,0,1,0,130,42.9a21.3,21.3,0,0,0-7.637-20.853,20.918,20.918,0,0,0-10.6-4.382c-13.646-1.78-24.1,11.711-23.833,21.682a22.007,22.007,0,0,1-2.317,11.316,2.985,2.985,0,0,0,.173,2.851,2.931,2.931,0,0,0,2.48,1.379Z" transform="translate(-85.331 -17.505)"/>
          <path id="Path_5904" data-name="Path 5904" d="M282.492,194.69a.888.888,0,0,0-.631.264.9.9,0,0,0-.261.636v11.257l-3.232-3.26a.887.887,0,0,0-1.249.013.906.906,0,0,0-.012,1.26l4.754,4.8a.894.894,0,0,0,1.263,0l4.754-4.8a.906.906,0,0,0-.012-1.26.887.887,0,0,0-1.249-.012l-3.232,3.26V195.59a.9.9,0,0,0-.261-.636.888.888,0,0,0-.631-.264Z" transform="translate(-257.327 -176.464)" fill="#ed8851"/>
          <path id="Path_5905" data-name="Path 5905" d="M415.587,279.99a10.673,10.673,0,0,0-7.568,3.167,10.861,10.861,0,0,0-3.14,7.634c.588,14.328,20.828,14.324,21.414,0a10.861,10.861,0,0,0-3.14-7.634,10.672,10.672,0,0,0-7.566-3.167Zm0,19.8a8.894,8.894,0,0,1-6.306-2.639,9.05,9.05,0,0,1-2.617-6.361c.49-11.94,17.357-11.937,17.845,0a9.05,9.05,0,0,1-2.616,6.361,8.894,8.894,0,0,1-6.306,2.64Z" transform="translate(-372.295 -252.99)"/>
          <path id="Path_5906" data-name="Path 5906" d="M474.16,344.84h-2.677v-2.7a.893.893,0,0,0-1.785,0v2.7h-2.677a.9.9,0,0,0,0,1.8H469.7v2.7a.892.892,0,1,0,1.785,0v-2.7h2.677a.9.9,0,1,0,0-1.8Z" transform="translate(-427.299 -307.941)" fill="#ed8851"/>
        </g>
      </g>
    </g>
  </g>
</svg>
