<svg xmlns="http://www.w3.org/2000/svg" width="68" height="68" viewBox="0 0 68 68">
  <g id="gynecology" transform="translate(-2691 729)">
    <rect id="Rectangle_3017" data-name="Rectangle 3017" width="68" height="68" rx="3" transform="translate(2691 -729)" fill="#eceef3" opacity="0"/>
    <g id="Group_12217" data-name="Group 12217" transform="translate(1740.999 -2398.001)">
      <g id="Group_12216" data-name="Group 12216">
        <g id="Group_11333" data-name="Group 11333" transform="translate(957.001 1676)">
          <path id="Path_5894" data-name="Path 5894" d="M71.96,53.944a.692.692,0,0,1-.651-.593,75.41,75.41,0,0,1,1.03-18.234A49.189,49.189,0,0,1,75.1,25.461a54.443,54.443,0,0,0,3.85-20.446V.645A.658.658,0,0,1,79.606,0a.625.625,0,0,1,.651.647v4.37a55.72,55.72,0,0,1-3.9,20.931,46.042,46.042,0,0,0-2.711,9.441,76.035,76.035,0,0,0-1.03,17.91.653.653,0,0,1-.6.7c0-.054,0-.054-.054-.054Z" transform="translate(-71.15 0.002)"/>
          <path id="Path_5895" data-name="Path 5895" d="M543.1,53.948h-.054a.7.7,0,0,1-.6-.7,75.13,75.13,0,0,0-1.03-17.8,50.261,50.261,0,0,0-2.716-9.5,55.719,55.719,0,0,1-3.9-20.931V.649a.651.651,0,0,1,1.3,0v4.37a54.238,54.238,0,0,0,3.85,20.446,49.24,49.24,0,0,1,2.765,9.764,74.561,74.561,0,0,1,1.03,18.126.692.692,0,0,1-.651.594Z" transform="translate(-489.907 -0.002)"/>
          <path id="Path_5896" data-name="Path 5896" d="M248.061,157.027a10.814,10.814,0,0,1-9.326-5.772,18.835,18.835,0,0,1-1.843-7.445,25.694,25.694,0,0,1,2.006-11.6l.163-.324c1.3-2.859,3.145-4.586,5.26-5.017s4.392.485,6.724,2.751a6.377,6.377,0,0,1,3.524-3.291l.7-.27c.054,0,.054,0,.109-.054a1.851,1.851,0,0,1,1.138,3.506c-1.084.432-1.193.755-1.681,2.374l-.163.27a3.041,3.041,0,0,1-1.789,1.942,3.259,3.259,0,0,1-2.657-.054l-1.843-.809c-.054-.054-.109,0-.163.054a.1.1,0,0,0,0,.162l2.874,4.639a2.181,2.181,0,0,1,.163,2,2.248,2.248,0,0,1-1.572,1.3,5.043,5.043,0,0,0-1.9.863l-1.627,1.241a3.14,3.14,0,0,1-3.2.378,2.412,2.412,0,0,1-1.464-2.158,2.983,2.983,0,0,1,2.223-2.859l1.084-.27a.635.635,0,1,1,.271,1.241l-1.084.27a1.655,1.655,0,0,0-1.247,1.564,1.126,1.126,0,0,0,.705,1.079,1.863,1.863,0,0,0,1.9-.216l1.627-1.241A6.141,6.141,0,0,1,249.3,140.2a.922.922,0,0,0,.705-.54.972.972,0,0,0-.054-.863l-2.82-4.639a1.379,1.379,0,0,1,.163-1.672,1.365,1.365,0,0,1,1.627-.378l1.9.809a1.91,1.91,0,0,0,1.627.054,1.964,1.964,0,0,0,1.084-1.187l.109-.27c.542-1.672.759-2.535,2.386-3.183a.533.533,0,0,0,.325-.7.519.519,0,0,0-.651-.378l-.651.27a5.108,5.108,0,0,0-2.82,2.7,1.139,1.139,0,0,1-.922.7,1.315,1.315,0,0,1-1.084-.324c-2.006-1.942-3.9-2.751-5.639-2.427-1.681.324-3.2,1.834-4.338,4.262a.912.912,0,0,0-.109.27,24.958,24.958,0,0,0-1.9,11.005,16.528,16.528,0,0,0,1.735,7.013,9.3,9.3,0,0,0,7.049,5.017,7.59,7.59,0,0,0,4.934-.971,5.83,5.83,0,0,0,2.765-5.341,4.318,4.318,0,0,0-2.548-3.722,4.671,4.671,0,0,0-1.139-.378.615.615,0,1,1,.325-1.187,12.528,12.528,0,0,1,1.356.485,5.551,5.551,0,0,1,3.254,4.747,7.1,7.1,0,0,1-3.362,6.473,9.388,9.388,0,0,1-4.556,1.188Z" transform="translate(-220.79 -113.816)" fill="#ed803a"/>
          <path id="Path_5897" data-name="Path 5897" d="M312.7,336.619a1.875,1.875,0,0,1-1.139-.378,2.236,2.236,0,0,1-.759-1.834.624.624,0,0,1,1.247-.054,1.108,1.108,0,0,0,.325.917.648.648,0,0,0,.325.108.626.626,0,1,1,.163,1.241c0-.055-.108,0-.162,0Z" transform="translate(-287.594 -301.608)" fill="#ed803a"/>
          <path id="Path_5898" data-name="Path 5898" d="M199.4,107.08a.643.643,0,0,1-.651-.54,14.678,14.678,0,0,0-1.139-3.506,7.728,7.728,0,0,0-3.308-3.4,17.028,17.028,0,0,1-4.555-3.561,19.977,19.977,0,0,1-4.88-15.1c.434-7.121,3.85-14.565,8.459-18.557a13.86,13.86,0,0,1,9-3.614h.109a17.519,17.519,0,0,1,5.585,1.025,8.164,8.164,0,0,1,2.548,14.08l-.542.54c-.651.7-2.657,3.183-1.735,5.395a6.929,6.929,0,0,0,1.572,2.05,9.693,9.693,0,0,1,.7.755,11.107,11.107,0,0,1,2.765,9.063,11.563,11.563,0,0,1-5.151,7.822,8,8,0,0,0-3.416,4.1,10.794,10.794,0,0,0-.325,2.805.651.651,0,0,1-1.3,0,12.328,12.328,0,0,1,.38-3.237,9.161,9.161,0,0,1,3.958-4.8,9.65,9.65,0,0,0,4.446-6.905,9.925,9.925,0,0,0-2.44-8.038c-.217-.216-.434-.485-.651-.7a7.413,7.413,0,0,1-1.843-2.427c-1.14-2.8.975-5.61,1.951-6.689a3.678,3.678,0,0,1,.651-.647,6.985,6.985,0,0,0-2.115-12.03,18.032,18.032,0,0,0-5.151-.971h-.109a12.886,12.886,0,0,0-8.187,3.291c-4.392,3.776-7.591,10.9-8.025,17.694a19.224,19.224,0,0,0,4.555,14.188,15.414,15.414,0,0,0,4.229,3.291,9.03,9.03,0,0,1,3.85,3.938,12.677,12.677,0,0,1,1.247,3.83.61.61,0,0,1-.542.7c.109.161.054.161.054.161Z" transform="translate(-173.813 -53.134)"/>
        </g>
      </g>
    </g>
  </g>
</svg>
