<svg xmlns="http://www.w3.org/2000/svg" width="68" height="68" viewBox="0 0 68 68">
  <g id="vascularsurgery" transform="translate(-2854 625)">
    <rect id="Rectangle_3027" data-name="Rectangle 3027" width="68" height="68" rx="3" transform="translate(2854 -625)" fill="#eceef3" opacity="0"/>
    <g id="Group_12222" data-name="Group 12222" transform="translate(1202.004 -2627.996)">
      <g id="Group_11379" data-name="Group 11379" transform="translate(-11694.469 -397)">
        <path id="Path_5968" data-name="Path 5968" d="M174.611,18.385a1.127,1.127,0,0,0-1.937-.617,18.6,18.6,0,0,1-3.446,2.838,4.009,4.009,0,0,0-1.059-2.244,17.728,17.728,0,0,0,5.732-6.2c.259-.527-.214-3.2-.124-10.455h0a1.126,1.126,0,1,0-2.252,0c0,2.244,0,5.766.225,9.749h0a17.833,17.833,0,0,1-6.6,6.215c-3.187,1.526-.889,7.55,2.4,6.339a17.5,17.5,0,0,0,5.168-3.1c1.126,7.528,2.252,7.191,2.173,14.326-.169.067-.349.157-.518.213-4.223,1.357-5.507,5.688-3.254,5.688,1.7,0,.394-2.244,3.716-3.455-.574,13.462-3.209,16.412-.969,16.828h0a1.125,1.125,0,0,0,1.306-.9c4.121-23.032.811-24.669-.563-35.226ZM166.1,19.6c.192-.067.619.4.777.909s.113,1.492-.282,1.3a1.5,1.5,0,0,1-.642-.875c-.1,0-.169-1.211.147-1.335Z" transform="translate(13198.84 2406.474)"/>
        <path id="Path_5969" data-name="Path 5969" d="M334.668,13.521c-2.928.976-4.966,4.566-6.756,7.718-1.61,2.838-2.4,4.488-5.5,5.374h0a28.321,28.321,0,0,1-3.716-4.488,85.578,85.578,0,0,1-1.565-13.888,7.864,7.864,0,0,1,1.194,1.357c2.511,3.758,5.146,3.87,5.439,3.87a1.122,1.122,0,1,0,0-2.244c-.079,0-1.768-.124-3.6-2.872a10.849,10.849,0,0,0-3.153-3V1.125a1.126,1.126,0,0,0-2.252,0,104.816,104.816,0,0,0,1.768,21.651c.191.875,3.8,5.172,4.887,5.968a18.931,18.931,0,0,0,7.5,4.488,4.473,4.473,0,0,0-.484,3.444,19.73,19.73,0,0,1-8.457-4.488,1.127,1.127,0,0,0-1.858.886,104.614,104.614,0,0,1-1.8,19.486,1.142,1.142,0,1,0,2.252.382,115.915,115.915,0,0,0,1.824-17.6,23.063,23.063,0,0,0,3.5,2.064,10.459,10.459,0,0,1,1,4.106A5.95,5.95,0,0,0,327.765,47a1.124,1.124,0,1,0,1.025-2,3.786,3.786,0,0,1-1.644-3.489c0-5.06-2.6-2.244,4.5-2.244h0a3.776,3.776,0,0,0,3.378-3.366c.36-2.333-1.126-4.566-3.378-4.431a13.606,13.606,0,0,1-7.286-3.119,8.4,8.4,0,0,0,3.525-2.715c2.444-.55,3.378-1.739,5.63-.965h0a1.125,1.125,0,1,0,.72-2.132c-3.513-1.122-4.943.808-4.4-.146,1.6-2.8,3.378-5.991,5.529-6.731a1.127,1.127,0,1,0-.7-2.143Zm-2.646,23.312c-.889.662-1.644-.494-1.464-1.672.09-.651.507-1.391,1.126-1.481,1.352-.023,1.43,2.356.338,3.152Z" transform="translate(13062.318 2406.997)" fill="#ec7f3a"/>
      </g>
    </g>
  </g>
</svg>
